<?xml version="1.0" encoding="UTF-8"?>
<svg xmlns="http://www.w3.org/2000/svg" viewBox="0 0 64 64">
  <rect x="14" y="6" width="36" height="6" rx="3" fill="#000"/>
  <rect x="14" y="52" width="36" height="6" rx="3" fill="#000"/>
  <path d="M20 12h24c0 8-10 16-12 18 2 2 12 10 12 18H20c0-8 10-16 12-18-2-2-12-10-12-18z" fill="#fff" stroke="#000" stroke-width="3" stroke-linejoin="round"/>
  <path d="M24 16c0 5 6 8 8 10 2-2 8-5 8-10H24z" fill="#000"/>
  <path d="M32 34c-2 2-8 5-8 10h16c0-5-6-8-8-10z" fill="#000"/>
</svg>
